PathFileType	4	(X/Y/Z)	C:\Users\WrightLab\Desktop\Jo\P3_3.trc
DataRate	CameraRate	NumFrames	NumMarkers	Units	OrigDataRate	OrigDataStartFrame	OrigNumFrames
100.00	100.00	       21	19	mm	100.00	92	       729
Frame#	Time	Headset_Front			Headset_Back			Headset_Left			Headset_Right			Left_Shoulder			Right_Shoulder			Sternum			C7			Left Elbow			Right Elbow			Left Wrist			Right Wrist			Left ASIS			Right ASIS			S2			Left Knee			Right Knee			Left Ankle			Right Ankle			
		X1	Y1	Z1	X2	Y2	Z2	X3	Y3	Z3	X4	Y4	Z4	X5	Y5	Z5	X6	Y6	Z6	X7	Y7	Z7	X8	Y8	Z8	X9	Y9	Z9	X10	Y10	Z10	X11	Y11	Z11	X12	Y12	Z12	X13	Y13	Z13	X14	Y14	Z14	X15	Y15	Z15	X16	Y16	Z16	X17	Y17	Z17	X18	Y18	Z18	X19	Y19	Z19	

92	0.910				-10.29563	1649.16565	1889.67151	-140.74985	1570.75562	1826.87805				-192.69469	1361.38733	1858.31470	143.92886	1372.65454	1929.36487				-34.72885	1416.40283	1950.01392	-316.89517	1097.66589	1730.15479	253.34999	1038.18958	1950.73389	-349.57269	994.21118	1551.27844	295.89209	882.96576	1786.05701	-86.13773	873.88422	1776.84863				-43.21429	971.99164	2011.27820	-46.20996	480.33026	1711.44128	92.80078	477.55554	2004.96533	10.68024	161.76265	1649.16833	29.32895	164.31763	2125.42285	
93	0.920				-8.92743	1647.35913	1883.16272	-140.16148	1569.22156	1820.14587				-191.72385	1359.33081	1850.45093	144.99959	1372.28467	1922.24390				-33.53389	1414.69946	1942.16492	-316.20029	1096.02295	1722.55823	255.08624	1037.14111	1941.57886	-349.47043	991.74316	1544.88733	296.93536	882.26129	1777.17395	-84.08198	873.08514	1764.89697				-40.36578	971.02716	2003.05554	-43.12008	478.12286	1703.74915	95.03964	475.78885	1997.63147	14.71771	158.37265	1649.09167	28.79191	166.30363	2124.13599	
94	0.930				-7.45964	1646.02539	1873.84985	-139.01051	1568.57092	1812.26941				-190.68239	1357.74744	1843.11047	146.15346	1371.13525	1912.13513				-32.33008	1414.26538	1934.98682	-315.91669	1093.85181	1715.74426	256.57092	1036.69775	1934.46265	-350.61530	990.07129	1537.58606	297.57132	880.70905	1769.22400							-37.90224	968.75879	1992.87915	-40.66475	477.23703	1693.76233	96.97381	475.30847	1991.66785	18.20754	156.48143	1645.84375	29.59172	167.31999	2122.53345	
95	0.940				-6.70379	1644.06812	1865.61707	-138.49890	1567.08398	1803.92688				-189.95914	1356.29980	1835.62524	146.76797	1369.89197	1902.84875				-31.39834	1412.47681	1926.10864	-315.24487	1090.48877	1706.52563	257.95563	1036.12268	1925.04932	-351.34192	987.58173	1531.49316	300.17776	880.41833	1760.34766	-80.26115	870.52722	1749.32031				-34.91008	968.56189	1984.47485	-37.02766	475.09161	1687.61914	99.00610	473.77838	1983.06799	20.97004	155.86401	1639.03369	29.48991	169.41545	2120.73340	
96	0.950				-5.03812	1643.63489	1857.31433	-137.37738	1566.38831	1797.01758				-189.32755	1354.62317	1827.48462	148.30667	1369.83582	1894.87891				-29.79978	1411.07544	1918.11487	-314.95657	1087.43616	1698.44519	259.97659	1034.58093	1915.66553	-352.14069	985.68591	1525.41028	302.03113	880.32581	1752.53198	-78.77091	870.33386	1736.94739				-32.87089	966.65094	1974.34570	-33.55589	473.52515	1681.27100	100.89465	472.90933	1974.84204	23.56648	154.69440	1633.37402	30.62551	171.07695	2118.21826	
97	0.960				-4.42697	1643.16614	1848.70386	-136.77866	1565.63879	1787.53674				-188.93622	1354.60083	1822.38953	149.47292	1369.08020	1885.73425				-28.93642	1410.62244	1909.76404	-314.16806	1085.71240	1692.65442	261.06464	1035.25708	1908.83362	-351.99512	983.26752	1518.38745	301.91302	878.25165	1745.67212	-76.68712	869.66278	1727.68640				-29.52033	965.96136	1965.44458	-31.53647	473.45309	1673.07129	103.18719	471.25131	1966.28918	24.87774	153.49635	1628.62512	32.40988	172.50557	2115.24438	
98	0.970				-3.46678	1642.26868	1838.89673	-136.56604	1566.07861	1779.68604				-188.53625	1353.43054	1814.03650	150.60522	1368.66443	1875.44202				-28.22876	1410.11218	1901.15979	-314.29752	1084.59607	1686.21472	262.11234	1034.71606	1898.78137	-352.36530	981.67822	1512.44531	303.10651	877.87744	1737.11621	-75.14604	869.58423	1716.71448				-27.05776	964.56531	1955.76440	-28.96064	474.57944	1664.58984	105.60902	470.43738	1957.14673	25.34890	152.38661	1624.40356	33.09208	175.06366	2112.54126	
99	0.980				-2.10366	1641.83484	1829.51343	-135.92052	1566.00940	1772.25745				-187.96690	1352.81580	1806.85986	151.11183	1368.40356	1865.99548				-27.08544	1410.43005	1893.44250	-314.33563	1085.01990	1683.50195	263.81885	1035.06580	1889.12939	-353.37238	979.95215	1506.94092	305.37003	878.88995	1724.39197	-73.06356	869.75110	1707.65723				-24.02994	964.25287	1945.87317	-26.17619	474.70557	1651.66150	108.07609	470.15015	1947.72119	25.64975	151.49997	1620.37646	34.51450	176.34030	2108.29663	
100	0.990				-1.02707	1642.24768	1820.65491	-135.38086	1565.62354	1762.75098				-187.29338	1352.49011	1799.30042	152.10226	1369.60437	1857.88757				-26.20642	1410.30603	1884.43250	-312.48703	1081.40515	1672.37158	265.18774	1035.87183	1881.43762	-353.59818	978.07001	1501.07361	306.32083	878.44623	1717.48193	-71.25259	870.05365	1697.60791				-20.96918	964.14948	1935.97510	-23.54745	473.95932	1641.26428	111.27055	469.13693	1937.88220	25.40530	150.61847	1617.42212	35.61380	178.89563	2104.27148	
101	1.000				-1.05666	1643.37781	1812.01782	-135.68538	1566.51453	1754.98962				-186.98055	1352.22119	1791.26819	153.38580	1370.39941	1849.02991				-25.57128	1410.61218	1875.79773	-312.12042	1082.98926	1671.03064	266.03653	1036.95203	1871.60559	-353.63000	976.56537	1495.80737	307.39474	879.40491	1709.61597	-69.31387	871.11743	1688.93420				-18.29269	964.25000	1926.19922	-23.28773	476.74811	1632.18481	114.48700	467.97003	1927.60144	25.52461	150.05533	1613.18555	36.63013	181.75299	2100.04199	
102	1.010				-0.86178	1643.98206	1802.26990	-134.87463	1567.43250	1746.56250				-186.64833	1352.45313	1783.59668	154.15974	1371.08411	1838.95349				-24.19019	1411.03845	1867.43835	-310.94016	1079.51538	1659.70825	266.69070	1037.55481	1862.24976	-353.89694	975.09772	1490.31897	306.72717	878.42035	1702.97400	-67.85715	872.90424	1680.00085				-14.95236	965.41492	1917.60876	-21.68576	476.86224	1622.31885	117.53027	467.40707	1915.10486	25.35452	150.85764	1610.26868	39.18551	185.89883	2095.55444	
103	1.020				0.03391	1644.85168	1791.63000	-134.32387	1567.71716	1737.47888				-186.47107	1352.78918	1776.00562	154.40985	1372.68555	1829.44299				-23.61316	1412.36316	1858.66211	-310.64746	1078.38818	1654.32837	268.02844	1039.28748	1853.36865	-353.76541	973.54639	1485.57434	308.81543	880.27252	1692.81689	-66.11709	874.74561	1670.20996				-11.80240	966.07587	1906.41382	-20.97561	477.57266	1616.78076	120.99161	466.32468	1901.85217	24.95850	150.01321	1611.23584	41.38987	190.05852	2090.29272	
104	1.030				0.45296	1645.56970	1783.06323	-134.69682	1569.11072	1729.03162				-185.77116	1353.45850	1768.18433	155.10800	1374.37891	1819.92908				-23.13288	1413.31006	1849.18750	-310.05255	1078.55347	1648.75293	269.36133	1042.11218	1846.29590	-353.86884	972.25464	1480.34583	308.95172	881.70111	1683.71265	-64.74287	877.25122	1660.02197				-8.19004	967.31323	1896.95557	-20.81524	479.59097	1611.50305	125.54167	465.78098	1889.54272	24.64024	150.01694	1609.58069	44.54574	193.99445	2084.16870	
105	1.040				1.01622	1646.96838	1774.79236	-134.44125	1569.61072	1720.30469				-185.08896	1354.10620	1760.96594	156.04437	1376.90601	1810.73242				-22.23494	1414.28064	1841.20605	-308.81213	1077.83618	1643.01062	270.00406	1044.48523	1838.14941	-354.01736	970.52362	1474.72241	309.43259	882.26135	1675.28015	-63.90145	879.25250	1650.60388				-4.53848	968.90692	1888.75684	-20.99711	479.69626	1604.40271	130.04150	464.11343	1873.88623	24.34034	150.04138	1608.45679	47.34011	198.44318	2076.97363	
106	1.050				2.02062	1648.11670	1764.89185	-133.66544	1570.92395	1712.70544				-184.47778	1354.85571	1753.36475	156.83736	1378.84888	1802.26636				-21.46980	1415.84912	1832.95984	-308.86212	1077.66882	1638.70251	270.28491	1046.25647	1828.21887	-354.49268	969.03546	1470.16479	309.83502	884.13361	1667.48047	-63.18277	881.83252	1641.71045				-1.42167	970.43628	1878.65527	-21.29446	480.58286	1599.26355	135.62859	464.15005	1859.55420	24.03212	150.07364	1607.35242	51.68941	202.13551	2067.54297	
107	1.060				2.59287	1648.71472	1754.30042	-133.71378	1571.98535	1704.07361				-183.94313	1355.70288	1745.80017	157.20085	1380.99329	1792.59216				-20.85205	1417.05945	1823.80627	-307.27631	1077.28113	1630.82922	270.73618	1049.34668	1820.17456	-354.30133	967.76831	1465.55542	310.54379	885.63971	1660.57800	-62.25595	884.57593	1632.70166				2.07400	971.50592	1868.35010	-21.60552	480.48242	1597.01843	142.04105	462.60355	1844.86621	23.74581	150.03468	1606.42444	55.97885	207.08305	2059.50903	
108	1.070				2.63756	1650.32788	1746.00696	-133.68622	1572.78918	1695.48828				-183.45476	1356.29114	1737.82458	157.98491	1382.69202	1781.73975	1.69285	1251.25989	1636.28687	-20.13685	1417.99963	1816.25208	-306.72736	1077.31799	1627.28394	271.04715	1051.97363	1811.18567	-354.48044	966.65179	1461.32959	310.85696	887.13483	1651.84058	-62.06469	887.29041	1624.15649				5.36929	972.97107	1860.55334	-21.61383	479.88550	1593.22070	148.01024	461.63885	1828.66443	23.62872	149.99895	1605.96387	61.15416	210.30614	2048.18359	
109	1.080				3.80582	1651.04138	1737.64429	-133.02080	1574.35840	1688.67151				-182.41867	1357.32666	1730.92224	158.99063	1384.15186	1772.83716	2.49976	1252.84937	1627.78723	-18.91751	1419.38086	1807.70984	-305.64233	1076.60999	1620.94055	271.86554	1053.90222	1801.61218	-354.14685	965.08466	1456.51758	310.91229	888.45135	1641.78333	-61.59033	889.27393	1615.20862				8.23542	973.70282	1850.31116	-22.00702	479.57352	1590.86523	154.09781	460.73468	1812.18115	23.59564	149.81500	1605.69910	67.00272	215.65649	2038.48547	
110	1.090				4.54723	1652.27502	1728.26709	-132.83257	1574.86487	1679.63245				-181.71599	1357.74194	1723.31396	160.07066	1386.70532	1764.52930	3.24572	1254.82996	1619.66675	-18.66326	1420.92053	1799.53662	-304.40842	1076.03687	1615.01501	272.26044	1056.08118	1792.98950	-354.50031	964.22498	1452.16650	309.07373	888.84772	1637.52600	-61.64351	890.42163	1606.52112				10.29756	974.81293	1841.81628	-22.21614	478.93408	1587.38293	159.33418	459.66278	1793.85925	23.66249	149.65918	1605.50171	71.56902	221.06709	2027.34363	
111	1.100				4.58687	1653.51440	1719.07971	-133.07248	1576.37390	1672.15173				-180.70120	1358.54236	1716.46729	160.84702	1388.16345	1755.36023	3.98996	1256.25415	1610.32117	-16.83035	1421.29700	1791.59460	-304.27808	1076.00720	1611.19324	275.06601	1057.10730	1784.19470	-354.03857	962.69312	1447.10364	310.00439	890.31409	1629.25842	-61.38044	891.52802	1600.09363				12.69805	975.81848	1833.91809	-23.06725	478.62509	1585.49573	165.34904	458.58078	1777.07935	23.49503	149.54655	1605.49963	78.07121	225.05269	2014.51013	
112	1.110				4.99443	1654.22607	1709.98584	-132.27036	1576.91113	1665.23853				-180.12605	1359.07007	1708.16772	161.68512	1389.75732	1745.63855	4.53926	1258.00037	1602.27014	-16.17121	1422.12817	1782.80701	-302.54797	1074.89600	1605.58032	275.65808	1059.46179	1775.09705	-353.85309	961.84595	1443.31799	310.18787	891.20862	1620.71960	-61.55999	892.06079	1591.94812				14.00360	976.22913	1825.31042	-23.62108	477.84290	1582.26086	170.15706	458.08649	1759.25427	22.46793	149.03244	1604.02588	84.99012	231.14323	2003.39771	
